<svg width="1084" height="272" viewBox="0 0 1084 272" fill="none" xmlns="http://www.w3.org/2000/svg">
<g clip-path="url(#clip0_45_260)">
<path d="M569.869 22.0105C569.37 21.5111 569.37 20.7014 569.869 20.202C570.368 19.7025 571.177 19.7025 571.676 20.202C572.176 20.7014 572.176 21.5111 571.676 22.0105C571.177 22.51 570.368 22.51 569.869 22.0105Z" fill="white" fill-opacity="0.15"/>
<path d="M330.563 130.289C329.789 130.385 329.711 130.463 329.595 131.257C329.499 130.482 329.421 130.405 328.627 130.289C329.402 130.192 329.479 130.114 329.595 129.32C329.692 130.095 329.789 130.172 330.563 130.289Z" fill="white" fill-opacity="0.1"/>
<path d="M486.856 183.884C486.082 183.981 486.005 184.058 485.888 184.853C485.792 184.078 485.714 184.001 484.92 183.884C485.695 183.787 485.772 183.71 485.888 182.915C485.985 183.69 486.082 183.768 486.856 183.884Z" fill="white" fill-opacity="0.1"/>
<path d="M380.127 175.347C379.352 175.444 379.275 175.522 379.158 176.316C379.061 175.541 378.984 175.463 378.19 175.347C378.965 175.25 379.042 175.173 379.158 174.378C379.255 175.153 379.352 175.23 380.127 175.347Z" fill="white" fill-opacity="0.1"/>
<path d="M447.478 120.565C446.703 120.662 446.626 120.74 446.509 121.534C446.413 120.759 446.335 120.681 445.541 120.565C446.316 120.468 446.393 120.391 446.509 119.596C446.606 120.372 446.703 120.449 447.478 120.565Z" fill="white" fill-opacity="0.1"/>
<path d="M329.344 200.059C329.739 200.059 330.061 200.38 330.061 200.776C330.061 201.172 329.739 201.492 329.344 201.492C328.948 201.492 328.628 201.172 328.628 200.776C328.628 200.38 328.948 200.059 329.344 200.059Z" fill="white" fill-opacity="0.1"/>
<path d="M389.342 61.762C389.738 61.762 390.059 62.0825 390.059 62.4787C390.059 62.8743 389.738 63.1955 389.342 63.1955C388.946 63.1955 388.626 62.8743 388.626 62.4787C388.626 62.0825 388.946 61.762 389.342 61.762Z" fill="white" fill-opacity="0.1"/>
<path d="M421.729 160.528C422.124 160.528 422.445 160.85 422.445 161.245C422.445 161.641 422.124 161.962 421.729 161.962C421.333 161.962 421.012 161.641 421.012 161.245C421.012 160.85 421.333 160.528 421.729 160.528Z" fill="white" fill-opacity="0.1"/>
<path d="M487.996 157.096C488.392 157.096 488.713 157.417 488.713 157.813C488.713 158.208 488.392 158.529 487.996 158.529C487.601 158.529 487.28 158.208 487.28 157.813C487.28 157.417 487.601 157.096 487.996 157.096Z" fill="white" fill-opacity="0.1"/>
<path d="M449.341 147.175C449.736 147.175 450.057 147.496 450.057 147.892C450.057 148.288 449.736 148.609 449.341 148.609C448.944 148.609 448.624 148.288 448.624 147.892C448.624 147.496 448.944 147.175 449.341 147.175Z" fill="white" fill-opacity="0.1"/>
<path d="M337.002 14.6809C337.288 15.3265 336.997 16.0817 336.351 16.3677C335.706 16.6536 334.951 16.3619 334.665 15.7157C334.38 15.0701 334.671 14.3148 335.316 14.0289C335.962 13.743 336.717 14.0353 337.002 14.6809Z" fill="white" fill-opacity="0.15"/>
<path d="M347.691 113.522C348.397 113.522 348.969 114.095 348.969 114.801C348.969 115.507 348.397 116.08 347.691 116.08C346.985 116.08 346.413 115.507 346.413 114.801C346.413 114.095 346.985 113.522 347.691 113.522Z" fill="white" fill-opacity="0.15"/>
<path d="M378.713 18.563C379.212 19.0625 379.212 19.8716 378.713 20.371C378.213 20.8704 377.404 20.8704 376.906 20.371C376.406 19.8716 376.406 19.0625 376.906 18.563C377.404 18.0636 378.213 18.0636 378.713 18.563Z" fill="white" fill-opacity="0.15"/>
<path d="M347.131 34.7268C347.526 34.7268 347.847 35.0474 347.847 35.4436C347.847 35.8398 347.526 36.1603 347.131 36.1603C346.734 36.1603 346.414 35.8398 346.414 35.4436C346.414 35.0474 346.734 34.7268 347.131 34.7268Z" fill="white" fill-opacity="0.15"/>
<path d="M421.831 94.4883C422.227 94.4883 422.548 94.8095 422.548 95.2051C422.548 95.6013 422.227 95.9224 421.831 95.9224C421.436 95.9224 421.115 95.6013 421.115 95.2051C421.115 94.8095 421.436 94.4883 421.831 94.4883Z" fill="white" fill-opacity="0.15"/>
<path d="M374.199 134.557C373.425 134.654 373.347 134.731 373.231 135.526C373.134 134.751 373.057 134.674 372.263 134.557C373.038 134.46 373.115 134.382 373.231 133.588C373.328 134.363 373.425 134.441 374.199 134.557Z" fill="white" fill-opacity="0.1"/>
<path d="M343.368 67.0095C342.594 67.1063 342.516 67.1839 342.4 67.9782C342.303 67.2031 342.226 67.1255 341.432 67.0095C342.206 66.9127 342.284 66.8351 342.4 66.0408C342.497 66.8159 342.594 66.8934 343.368 67.0095Z" fill="white" fill-opacity="0.1"/>
<path d="M424.236 116.1C423.462 116.196 423.384 116.274 423.268 117.068C423.171 116.293 423.094 116.216 422.3 116.1C423.075 116.003 423.152 115.925 423.268 115.131C423.365 115.906 423.462 115.984 424.236 116.1Z" fill="white" fill-opacity="0.1"/>
<path d="M350.483 159.498C349.708 159.594 349.631 159.672 349.515 160.466C349.418 159.691 349.34 159.614 348.547 159.498C349.321 159.401 349.399 159.323 349.515 158.529C349.611 159.304 349.708 159.381 350.483 159.498Z" fill="white" fill-opacity="0.1"/>
<path d="M200.539 218.4C201.313 218.496 201.391 218.574 201.507 219.368C201.604 218.594 201.681 218.516 202.476 218.4C201.7 218.303 201.624 218.225 201.507 217.431C201.41 218.206 201.313 218.283 200.539 218.4Z" fill="white" fill-opacity="0.1"/>
<path d="M109.398 272.025C110.173 272.121 110.25 272.199 110.366 272.993C110.464 272.218 110.541 272.141 111.335 272.025C110.56 271.928 110.483 271.85 110.366 271.056C110.269 271.831 110.173 271.909 109.398 272.025Z" fill="white" fill-opacity="0.1"/>
<path d="M114.743 210.325C115.518 210.422 115.595 210.499 115.712 211.294C115.808 210.519 115.885 210.441 116.68 210.325C115.905 210.228 115.828 210.151 115.712 209.356C115.615 210.131 115.518 210.208 114.743 210.325Z" fill="white" fill-opacity="0.1"/>
<path d="M173.652 104.649C174.426 104.746 174.504 104.824 174.62 105.618C174.717 104.843 174.794 104.765 175.588 104.649C174.813 104.552 174.736 104.475 174.62 103.68C174.523 104.456 174.426 104.533 173.652 104.649Z" fill="white" fill-opacity="0.1"/>
<path d="M235.162 161.524C235.936 161.621 236.014 161.699 236.13 162.493C236.227 161.718 236.304 161.64 237.099 161.524C236.324 161.427 236.247 161.35 236.13 160.555C236.034 161.33 235.936 161.407 235.162 161.524Z" fill="white" fill-opacity="0.1"/>
<path d="M205.666 173.838C205.27 173.838 204.95 174.16 204.95 174.555C204.95 174.951 205.27 175.272 205.666 175.272C206.062 175.272 206.383 174.951 206.383 174.555C206.383 174.16 206.062 173.838 205.666 173.838Z" fill="white" fill-opacity="0.1"/>
<path d="M136.514 67.3557C136.118 67.3557 135.798 67.6763 135.798 68.0725C135.798 68.4687 136.118 68.7892 136.514 68.7892C136.91 68.7892 137.23 68.4687 137.23 68.0725C137.23 67.6763 136.91 67.3557 136.514 67.3557Z" fill="white" fill-opacity="0.1"/>
<path d="M184.892 231.937C184.497 231.937 184.176 232.258 184.176 232.654C184.176 233.05 184.497 233.371 184.892 233.371C185.288 233.371 185.608 233.05 185.608 232.654C185.608 232.258 185.288 231.937 184.892 231.937Z" fill="white" fill-opacity="0.1"/>
<path d="M237.777 96.5474C237.382 96.5474 237.061 96.8686 237.061 97.2648C237.061 97.6603 237.382 97.9815 237.777 97.9815C238.174 97.9815 238.494 97.6603 238.494 97.2648C238.494 96.8686 238.174 96.5474 237.777 96.5474Z" fill="white" fill-opacity="0.1"/>
<path d="M157.146 249.011C156.75 249.011 156.429 249.332 156.429 249.729C156.429 250.124 156.75 250.445 157.146 250.445C157.541 250.445 157.862 250.124 157.862 249.729C157.862 249.332 157.541 249.011 157.146 249.011Z" fill="white" fill-opacity="0.1"/>
<path d="M99.9284 226.708C99.5322 226.708 99.2117 227.029 99.2117 227.425C99.2117 227.821 99.5322 228.142 99.9284 228.142C100.324 228.142 100.645 227.821 100.645 227.425C100.645 227.029 100.324 226.708 99.9284 226.708Z" fill="white" fill-opacity="0.1"/>
<path d="M169.476 213.874C169.081 213.874 168.76 214.195 168.76 214.591C168.76 214.987 169.081 215.308 169.476 215.308C169.872 215.308 170.192 214.987 170.192 214.591C170.192 214.195 169.872 213.874 169.476 213.874Z" fill="white" fill-opacity="0.1"/>
<path d="M141.598 223.924C141.312 224.57 141.604 225.325 142.249 225.611C142.894 225.897 143.65 225.604 143.935 224.959C144.221 224.313 143.929 223.558 143.284 223.272C142.639 222.986 141.884 223.278 141.598 223.924Z" fill="white" fill-opacity="0.15"/>
<path d="M145.154 129.871C144.448 129.871 143.876 130.443 143.876 131.149C143.876 131.855 144.448 132.428 145.154 132.428C145.86 132.428 146.432 131.855 146.432 131.149C146.432 130.443 145.86 129.871 145.154 129.871Z" fill="white" fill-opacity="0.15"/>
<path d="M166.289 172.273C165.79 172.772 165.79 173.582 166.289 174.082C166.788 174.581 167.597 174.581 168.096 174.082C168.596 173.582 168.596 172.772 168.096 172.273C167.597 171.774 166.788 171.774 166.289 172.273Z" fill="white" fill-opacity="0.15"/>
<path d="M232.084 218.38C231.688 218.38 231.368 218.701 231.368 219.096C231.368 219.493 231.688 219.813 232.084 219.813C232.48 219.813 232.801 219.493 232.801 219.096C232.801 218.701 232.48 218.38 232.084 218.38Z" fill="white" fill-opacity="0.15"/>
<path d="M212.165 139.923C211.769 139.923 211.448 140.244 211.448 140.64C211.448 141.036 211.769 141.356 212.165 141.356C212.56 141.356 212.881 141.036 212.881 140.64C212.881 140.244 212.56 139.923 212.165 139.923Z" fill="white" fill-opacity="0.15"/>
<path d="M100.616 132.5C101.391 132.598 101.468 132.675 101.585 133.469C101.681 132.695 101.759 132.617 102.553 132.5C101.778 132.404 101.701 132.327 101.585 131.532C101.488 132.307 101.391 132.384 100.616 132.5Z" fill="white" fill-opacity="0.1"/>
<path d="M192.238 76.387C193.012 76.4845 193.09 76.5614 193.206 77.3557C193.303 76.5813 193.38 76.5037 194.174 76.387C193.399 76.2902 193.322 76.2126 193.206 75.4189C193.109 76.1934 193.012 76.271 192.238 76.387Z" fill="white" fill-opacity="0.1"/>
<path d="M158.504 40.717C159.278 40.8138 159.356 40.8914 159.472 41.6857C159.569 40.9106 159.646 40.8331 160.44 40.717C159.665 40.6202 159.588 40.5426 159.472 39.7483C159.375 40.5234 159.278 40.601 158.504 40.717Z" fill="white" fill-opacity="0.1"/>
<path d="M86.5781 95.718C85.8037 95.8148 85.7261 95.8924 85.61 96.6867C85.5132 95.9122 85.4357 95.8347 84.642 95.718C85.4164 95.6212 85.494 95.5436 85.61 94.7493C85.7068 95.5244 85.8037 95.6019 86.5781 95.718Z" fill="white" fill-opacity="0.1"/>
<path d="M81.2324 34.018C80.458 34.1149 80.3804 34.1924 80.2643 34.9868C80.1669 34.2117 80.09 34.1341 79.2956 34.018C80.0707 33.9212 80.1477 33.8437 80.2643 33.0493C80.3605 33.8244 80.458 33.9014 81.2324 34.018Z" fill="white" fill-opacity="0.1"/>
<path d="M11.084 55.6299C11.4796 55.6299 11.8008 55.9511 11.8008 56.3473C11.8008 56.7429 11.4796 57.064 11.084 57.064C10.6885 57.064 10.3679 56.7429 10.3679 56.3473C10.3679 55.9511 10.6885 55.6299 11.084 55.6299Z" fill="white" fill-opacity="0.1"/>
<path d="M38.8301 72.7046C39.2257 72.7046 39.5469 73.0258 39.5469 73.422C39.5469 73.8176 39.2257 74.1388 38.8301 74.1388C38.4346 74.1388 38.114 73.8176 38.114 73.422C38.114 73.0258 38.4346 72.7046 38.8301 72.7046Z" fill="white" fill-opacity="0.1"/>
<path d="M96.0475 50.4014C96.4431 50.4014 96.7637 50.7219 96.7637 51.1181C96.7637 51.5137 96.4431 51.8349 96.0475 51.8349C95.6513 51.8349 95.3308 51.5137 95.3308 51.1181C95.3308 50.7219 95.6513 50.4014 96.0475 50.4014Z" fill="white" fill-opacity="0.1"/>
<path d="M26.499 37.5671C26.8952 37.5671 27.2158 37.8877 27.2158 38.2839C27.2158 38.6801 26.8952 39.0007 26.499 39.0007C26.1035 39.0007 25.7829 38.6801 25.7829 38.2839C25.7829 37.8877 26.1035 37.5671 26.499 37.5671Z" fill="white" fill-opacity="0.1"/>
<path d="M54.3765 47.6174C54.6624 48.263 54.3707 49.0182 53.7251 49.3042C53.0802 49.5901 52.3249 49.2984 52.0396 48.6522C51.7537 48.0066 52.0454 47.2514 52.6904 46.9654C53.336 46.6795 54.0906 46.9718 54.3765 47.6174Z" fill="white" fill-opacity="0.15"/>
<g clip-path="url(#clip1_45_260)">
<path d="M397.239 112.978C396.465 113.075 396.387 113.153 396.271 113.947C396.174 113.172 396.097 113.095 395.303 112.978C396.078 112.882 396.155 112.804 396.271 112.01C396.368 112.785 396.465 112.862 397.239 112.978Z" fill="white" fill-opacity="0.1"/>
<path d="M553.532 166.574C552.758 166.671 552.681 166.749 552.564 167.543C552.467 166.768 552.39 166.691 551.596 166.574C552.371 166.477 552.448 166.4 552.564 165.605C552.661 166.381 552.758 166.458 553.532 166.574Z" fill="white" fill-opacity="0.1"/>
<path d="M446.803 158.037C446.028 158.134 445.951 158.211 445.834 159.006C445.737 158.231 445.66 158.153 444.866 158.037C445.64 157.94 445.718 157.863 445.834 157.068C445.931 157.843 446.028 157.92 446.803 158.037Z" fill="white" fill-opacity="0.1"/>
<path d="M514.153 103.255C513.379 103.352 513.301 103.43 513.185 104.224C513.088 103.449 513.011 103.371 512.217 103.255C512.992 103.159 513.069 103.081 513.185 102.287C513.282 103.062 513.379 103.139 514.153 103.255Z" fill="white" fill-opacity="0.1"/>
<path d="M396.02 182.749C396.415 182.749 396.736 183.07 396.736 183.466C396.736 183.862 396.415 184.182 396.02 184.182C395.624 184.182 395.303 183.862 395.303 183.466C395.303 183.07 395.624 182.749 396.02 182.749Z" fill="white" fill-opacity="0.1"/>
<path d="M456.018 44.4519C456.414 44.4519 456.734 44.7725 456.734 45.1687C456.734 45.5642 456.414 45.8854 456.018 45.8854C455.622 45.8854 455.301 45.5642 455.301 45.1687C455.301 44.7725 455.622 44.4519 456.018 44.4519Z" fill="white" fill-opacity="0.1"/>
<path d="M488.404 143.218C488.8 143.218 489.121 143.539 489.121 143.935C489.121 144.331 488.8 144.652 488.404 144.652C488.009 144.652 487.688 144.331 487.688 143.935C487.688 143.539 488.009 143.218 488.404 143.218Z" fill="white" fill-opacity="0.1"/>
<path d="M554.671 139.786C555.067 139.786 555.388 140.106 555.388 140.503C555.388 140.898 555.067 141.219 554.671 141.219C554.275 141.219 553.955 140.898 553.955 140.503C553.955 140.106 554.275 139.786 554.671 139.786Z" fill="white" fill-opacity="0.1"/>
<path d="M516.015 129.865C516.411 129.865 516.731 130.186 516.731 130.582C516.731 130.978 516.411 131.299 516.015 131.299C515.619 131.299 515.299 130.978 515.299 130.582C515.299 130.186 515.619 129.865 516.015 129.865Z" fill="white" fill-opacity="0.1"/>
<path d="M414.367 96.2122C415.073 96.2122 415.645 96.7847 415.645 97.4912C415.645 98.197 415.073 98.7695 414.367 98.7695C413.661 98.7695 413.088 98.197 413.088 97.4912C413.088 96.7847 413.661 96.2122 414.367 96.2122Z" fill="white" fill-opacity="0.15"/>
<path d="M445.389 1.25323C445.887 1.75266 445.887 2.56174 445.389 3.06117C444.889 3.56059 444.08 3.56059 443.581 3.06117C443.082 2.56174 443.082 1.75266 443.581 1.25323C444.08 0.753806 444.889 0.753806 445.389 1.25323Z" fill="white" fill-opacity="0.15"/>
<path d="M413.805 17.417C414.201 17.417 414.521 17.7376 414.521 18.1338C414.521 18.53 414.201 18.8505 413.805 18.8505C413.409 18.8505 413.089 18.53 413.089 18.1338C413.089 17.7376 413.409 17.417 413.805 17.417Z" fill="white" fill-opacity="0.15"/>
<path d="M488.507 77.1782C488.902 77.1782 489.224 77.4994 489.224 77.895C489.224 78.2912 488.902 78.6124 488.507 78.6124C488.111 78.6124 487.791 78.2912 487.791 77.895C487.791 77.4994 488.111 77.1782 488.507 77.1782Z" fill="white" fill-opacity="0.15"/>
<path d="M440.874 117.247C440.1 117.344 440.022 117.421 439.906 118.216C439.809 117.441 439.732 117.363 438.938 117.247C439.712 117.15 439.79 117.072 439.906 116.278C440.003 117.053 440.1 117.131 440.874 117.247Z" fill="white" fill-opacity="0.1"/>
<path d="M410.044 49.6994C409.269 49.7962 409.192 49.8738 409.076 50.6682C408.979 49.893 408.901 49.8155 408.108 49.6994C408.882 49.6026 408.96 49.525 409.076 48.7307C409.173 49.5058 409.269 49.5834 410.044 49.6994Z" fill="white" fill-opacity="0.1"/>
<path d="M490.912 98.7895C490.138 98.8863 490.06 98.9639 489.944 99.7582C489.847 98.9831 489.77 98.9056 488.976 98.7895C489.75 98.6927 489.828 98.6151 489.944 97.8208C490.041 98.5959 490.138 98.6735 490.912 98.7895Z" fill="white" fill-opacity="0.1"/>
<path d="M417.159 142.187C416.384 142.284 416.307 142.362 416.19 143.156C416.094 142.381 416.016 142.304 415.222 142.187C415.997 142.091 416.074 142.013 416.19 141.219C416.287 141.994 416.384 142.071 417.159 142.187Z" fill="white" fill-opacity="0.1"/>
<path d="M267.215 201.09C267.989 201.186 268.067 201.264 268.183 202.058C268.279 201.284 268.357 201.206 269.151 201.09C268.376 200.993 268.299 200.915 268.183 200.122C268.086 200.896 267.989 200.974 267.215 201.09Z" fill="white" fill-opacity="0.1"/>
<path d="M176.074 254.715C176.848 254.812 176.926 254.889 177.042 255.684C177.139 254.908 177.216 254.831 178.011 254.715C177.236 254.618 177.159 254.54 177.042 253.746C176.945 254.521 176.848 254.599 176.074 254.715Z" fill="white" fill-opacity="0.1"/>
<path d="M181.419 193.015C182.194 193.112 182.271 193.189 182.387 193.984C182.484 193.208 182.561 193.131 183.355 193.015C182.581 192.918 182.503 192.84 182.387 192.046C182.291 192.821 182.194 192.898 181.419 193.015Z" fill="white" fill-opacity="0.1"/>
<path d="M240.328 87.3391C241.102 87.4359 241.18 87.5135 241.296 88.3078C241.392 87.5327 241.47 87.4551 242.264 87.3391C241.489 87.2423 241.412 87.1647 241.296 86.3704C241.199 87.1455 241.102 87.223 240.328 87.3391Z" fill="white" fill-opacity="0.1"/>
<path d="M301.838 144.214C302.612 144.311 302.69 144.388 302.806 145.183C302.903 144.408 302.98 144.33 303.774 144.214C303 144.117 302.922 144.04 302.806 143.245C302.71 144.02 302.612 144.097 301.838 144.214Z" fill="white" fill-opacity="0.1"/>
<path d="M272.342 156.528C271.946 156.528 271.626 156.85 271.626 157.245C271.626 157.641 271.946 157.962 272.342 157.962C272.738 157.962 273.059 157.641 273.059 157.245C273.059 156.85 272.738 156.528 272.342 156.528Z" fill="white" fill-opacity="0.1"/>
<path d="M203.189 50.0457C202.793 50.0457 202.472 50.3662 202.472 50.7624C202.472 51.1586 202.793 51.4792 203.189 51.4792C203.585 51.4792 203.905 51.1586 203.905 50.7624C203.905 50.3662 203.585 50.0457 203.189 50.0457Z" fill="white" fill-opacity="0.1"/>
<path d="M251.567 214.626C251.172 214.626 250.85 214.948 250.85 215.344C250.85 215.739 251.172 216.061 251.567 216.061C251.963 216.061 252.283 215.739 252.283 215.344C252.283 214.948 251.963 214.626 251.567 214.626Z" fill="white" fill-opacity="0.1"/>
<path d="M304.452 79.2373C304.057 79.2373 303.736 79.5585 303.736 79.9547C303.736 80.3503 304.057 80.6715 304.452 80.6715C304.848 80.6715 305.169 80.3503 305.169 79.9547C305.169 79.5585 304.848 79.2373 304.452 79.2373Z" fill="white" fill-opacity="0.1"/>
<path d="M223.821 231.701C223.426 231.701 223.105 232.023 223.105 232.419C223.105 232.814 223.426 233.136 223.821 233.136C224.217 233.136 224.538 232.814 224.538 232.419C224.538 232.023 224.217 231.701 223.821 231.701Z" fill="white" fill-opacity="0.1"/>
<path d="M166.604 209.398C166.208 209.398 165.887 209.719 165.887 210.115C165.887 210.511 166.208 210.832 166.604 210.832C167 210.832 167.32 210.511 167.32 210.115C167.32 209.719 167 209.398 166.604 209.398Z" fill="white" fill-opacity="0.1"/>
<path d="M236.152 196.564C235.756 196.564 235.435 196.885 235.435 197.281C235.435 197.677 235.756 197.998 236.152 197.998C236.548 197.998 236.868 197.677 236.868 197.281C236.868 196.885 236.548 196.564 236.152 196.564Z" fill="white" fill-opacity="0.1"/>
<path d="M208.274 206.614C207.988 207.26 208.28 208.015 208.925 208.301C209.57 208.587 210.325 208.295 210.611 207.649C210.897 207.003 210.605 206.248 209.96 205.962C209.314 205.676 208.56 205.969 208.274 206.614Z" fill="white" fill-opacity="0.15"/>
<path d="M211.83 112.561C211.124 112.561 210.551 113.133 210.551 113.839C210.551 114.545 211.124 115.118 211.83 115.118C212.536 115.118 213.107 114.545 213.107 113.839C213.107 113.133 212.536 112.561 211.83 112.561Z" fill="white" fill-opacity="0.15"/>
<path d="M232.965 154.963C232.466 155.462 232.466 156.272 232.965 156.772C233.464 157.271 234.273 157.271 234.772 156.772C235.271 156.272 235.271 155.462 234.772 154.963C234.273 154.464 233.464 154.464 232.965 154.963Z" fill="white" fill-opacity="0.15"/>
<path d="M298.76 201.07C298.364 201.07 298.044 201.391 298.044 201.786C298.044 202.183 298.364 202.503 298.76 202.503C299.155 202.503 299.477 202.183 299.477 201.786C299.477 201.391 299.155 201.07 298.76 201.07Z" fill="white" fill-opacity="0.15"/>
<path d="M278.84 122.613C278.444 122.613 278.123 122.934 278.123 123.33C278.123 123.726 278.444 124.047 278.84 124.047C279.235 124.047 279.556 123.726 279.556 123.33C279.556 122.934 279.235 122.613 278.84 122.613Z" fill="white" fill-opacity="0.15"/>
<path d="M167.291 115.19C168.066 115.288 168.143 115.365 168.259 116.159C168.356 115.384 168.434 115.307 169.228 115.19C168.453 115.093 168.375 115.017 168.259 114.222C168.163 114.997 168.066 115.074 167.291 115.19Z" fill="white" fill-opacity="0.1"/>
<path d="M258.913 59.077C259.688 59.1744 259.765 59.2513 259.882 60.0457C259.978 59.2712 260.056 59.1937 260.85 59.077C260.075 58.9802 259.998 58.9026 259.882 58.1089C259.785 58.8833 259.688 58.9609 258.913 59.077Z" fill="white" fill-opacity="0.1"/>
<path d="M225.178 23.407C225.953 23.5038 226.03 23.5813 226.147 24.3757C226.243 23.6006 226.321 23.523 227.115 23.407C226.34 23.3102 226.263 23.2326 226.147 22.4382C226.05 23.2133 225.953 23.2909 225.178 23.407Z" fill="white" fill-opacity="0.1"/>
<path d="M153.253 78.4079C152.478 78.5047 152.401 78.5823 152.285 79.3766C152.188 78.6022 152.11 78.5246 151.317 78.4079C152.091 78.3111 152.169 78.2335 152.285 77.4392C152.382 78.2143 152.478 78.2919 153.253 78.4079Z" fill="white" fill-opacity="0.1"/>
<path d="M147.908 16.708C147.134 16.8048 147.056 16.8824 146.94 17.6767C146.843 16.9016 146.766 16.824 145.971 16.708C146.747 16.6112 146.823 16.5336 146.94 15.7393C147.036 16.5144 147.134 16.5913 147.908 16.708Z" fill="white" fill-opacity="0.1"/>
<path d="M77.7588 38.3198C78.1544 38.3198 78.4756 38.641 78.4756 39.0372C78.4756 39.4328 78.1544 39.754 77.7588 39.754C77.3633 39.754 77.0427 39.4328 77.0427 39.0372C77.0427 38.641 77.3633 38.3198 77.7588 38.3198Z" fill="white" fill-opacity="0.1"/>
<path d="M105.506 55.3945C105.901 55.3945 106.223 55.7157 106.223 56.1119C106.223 56.5075 105.901 56.8287 105.506 56.8287C105.11 56.8287 104.79 56.5075 104.79 56.1119C104.79 55.7157 105.11 55.3945 105.506 55.3945Z" fill="white" fill-opacity="0.1"/>
<path d="M162.723 33.0916C163.119 33.0916 163.439 33.4121 163.439 33.8083C163.439 34.2039 163.119 34.5251 162.723 34.5251C162.327 34.5251 162.007 34.2039 162.007 33.8083C162.007 33.4121 162.327 33.0916 162.723 33.0916Z" fill="white" fill-opacity="0.1"/>
<path d="M93.1738 20.2571C93.57 20.2571 93.8906 20.5776 93.8906 20.9738C93.8906 21.3701 93.57 21.6906 93.1738 21.6906C92.7783 21.6906 92.4578 21.3701 92.4578 20.9738C92.4578 20.5776 92.7783 20.2571 93.1738 20.2571Z" fill="white" fill-opacity="0.1"/>
<path d="M121.052 30.3074C121.338 30.953 121.047 31.7082 120.401 31.9941C119.756 32.2801 119.001 31.9884 118.715 31.3421C118.429 30.6965 118.721 29.9413 119.366 29.6554C120.012 29.3694 120.766 29.6618 121.052 30.3074Z" fill="white" fill-opacity="0.15"/>
</g>
</g>
<g clip-path="url(#clip2_45_260)">
<path d="M1076.87 22.0105C1076.37 21.5111 1076.37 20.7014 1076.87 20.202C1077.37 19.7025 1078.18 19.7025 1078.68 20.202C1079.18 20.7014 1079.18 21.5111 1078.68 22.0105C1078.18 22.51 1077.37 22.51 1076.87 22.0105Z" fill="white" fill-opacity="0.15"/>
<path d="M837.563 130.289C836.789 130.385 836.711 130.463 836.595 131.257C836.499 130.482 836.421 130.405 835.627 130.289C836.402 130.192 836.479 130.114 836.595 129.32C836.692 130.095 836.789 130.172 837.563 130.289Z" fill="white" fill-opacity="0.1"/>
<path d="M993.856 183.884C993.082 183.981 993.005 184.058 992.888 184.853C992.792 184.078 992.714 184.001 991.92 183.884C992.695 183.787 992.772 183.71 992.888 182.915C992.985 183.69 993.082 183.768 993.856 183.884Z" fill="white" fill-opacity="0.1"/>
<path d="M887.127 175.347C886.352 175.444 886.275 175.522 886.158 176.316C886.061 175.541 885.984 175.463 885.19 175.347C885.965 175.25 886.042 175.173 886.158 174.378C886.255 175.153 886.352 175.23 887.127 175.347Z" fill="white" fill-opacity="0.1"/>
<path d="M954.478 120.565C953.703 120.662 953.626 120.74 953.509 121.534C953.413 120.759 953.335 120.681 952.541 120.565C953.316 120.468 953.393 120.391 953.509 119.596C953.606 120.372 953.703 120.449 954.478 120.565Z" fill="white" fill-opacity="0.1"/>
<path d="M836.344 200.059C836.739 200.059 837.061 200.38 837.061 200.776C837.061 201.172 836.739 201.492 836.344 201.492C835.948 201.492 835.628 201.172 835.628 200.776C835.628 200.38 835.948 200.059 836.344 200.059Z" fill="white" fill-opacity="0.1"/>
<path d="M896.342 61.762C896.738 61.762 897.059 62.0825 897.059 62.4787C897.059 62.8743 896.738 63.1955 896.342 63.1955C895.946 63.1955 895.626 62.8743 895.626 62.4787C895.626 62.0825 895.946 61.762 896.342 61.762Z" fill="white" fill-opacity="0.1"/>
<path d="M928.729 160.528C929.124 160.528 929.445 160.85 929.445 161.245C929.445 161.641 929.124 161.962 928.729 161.962C928.333 161.962 928.012 161.641 928.012 161.245C928.012 160.85 928.333 160.528 928.729 160.528Z" fill="white" fill-opacity="0.1"/>
<path d="M994.996 157.096C995.392 157.096 995.713 157.417 995.713 157.813C995.713 158.208 995.392 158.529 994.996 158.529C994.601 158.529 994.28 158.208 994.28 157.813C994.28 157.417 994.601 157.096 994.996 157.096Z" fill="white" fill-opacity="0.1"/>
<path d="M956.341 147.175C956.736 147.175 957.057 147.496 957.057 147.892C957.057 148.288 956.736 148.609 956.341 148.609C955.944 148.609 955.624 148.288 955.624 147.892C955.624 147.496 955.944 147.175 956.341 147.175Z" fill="white" fill-opacity="0.1"/>
<path d="M844.002 14.6809C844.288 15.3265 843.997 16.0817 843.351 16.3677C842.706 16.6536 841.951 16.3619 841.665 15.7157C841.38 15.0701 841.671 14.3148 842.316 14.0289C842.962 13.743 843.717 14.0353 844.002 14.6809Z" fill="white" fill-opacity="0.15"/>
<path d="M854.691 113.522C855.397 113.522 855.969 114.095 855.969 114.801C855.969 115.507 855.397 116.08 854.691 116.08C853.985 116.08 853.413 115.507 853.413 114.801C853.413 114.095 853.985 113.522 854.691 113.522Z" fill="white" fill-opacity="0.15"/>
<path d="M885.713 18.563C886.212 19.0625 886.212 19.8716 885.713 20.371C885.213 20.8704 884.404 20.8704 883.906 20.371C883.406 19.8716 883.406 19.0625 883.906 18.563C884.404 18.0636 885.213 18.0636 885.713 18.563Z" fill="white" fill-opacity="0.15"/>
<path d="M854.131 34.7268C854.526 34.7268 854.847 35.0474 854.847 35.4436C854.847 35.8398 854.526 36.1603 854.131 36.1603C853.734 36.1603 853.414 35.8398 853.414 35.4436C853.414 35.0474 853.734 34.7268 854.131 34.7268Z" fill="white" fill-opacity="0.15"/>
<path d="M928.831 94.4883C929.227 94.4883 929.548 94.8095 929.548 95.2051C929.548 95.6013 929.227 95.9224 928.831 95.9224C928.436 95.9224 928.115 95.6013 928.115 95.2051C928.115 94.8095 928.436 94.4883 928.831 94.4883Z" fill="white" fill-opacity="0.15"/>
<path d="M881.199 134.557C880.425 134.654 880.347 134.731 880.231 135.526C880.134 134.751 880.057 134.674 879.263 134.557C880.038 134.46 880.115 134.382 880.231 133.588C880.328 134.363 880.425 134.441 881.199 134.557Z" fill="white" fill-opacity="0.1"/>
<path d="M850.368 67.0095C849.594 67.1063 849.516 67.1839 849.4 67.9782C849.303 67.2031 849.226 67.1255 848.432 67.0095C849.206 66.9127 849.284 66.8351 849.4 66.0408C849.497 66.8159 849.594 66.8934 850.368 67.0095Z" fill="white" fill-opacity="0.1"/>
<path d="M931.236 116.1C930.462 116.196 930.384 116.274 930.268 117.068C930.171 116.293 930.094 116.216 929.3 116.1C930.075 116.003 930.152 115.925 930.268 115.131C930.365 115.906 930.462 115.984 931.236 116.1Z" fill="white" fill-opacity="0.1"/>
<path d="M857.483 159.498C856.708 159.594 856.631 159.672 856.515 160.466C856.418 159.691 856.34 159.614 855.547 159.498C856.321 159.401 856.399 159.323 856.515 158.529C856.611 159.304 856.708 159.381 857.483 159.498Z" fill="white" fill-opacity="0.1"/>
<path d="M707.539 218.4C708.313 218.496 708.391 218.574 708.507 219.368C708.604 218.594 708.681 218.516 709.476 218.4C708.7 218.303 708.624 218.225 708.507 217.431C708.41 218.206 708.313 218.283 707.539 218.4Z" fill="white" fill-opacity="0.1"/>
<path d="M616.398 272.025C617.173 272.121 617.25 272.199 617.366 272.993C617.464 272.218 617.541 272.141 618.335 272.025C617.56 271.928 617.483 271.85 617.366 271.056C617.269 271.831 617.173 271.909 616.398 272.025Z" fill="white" fill-opacity="0.1"/>
<path d="M621.743 210.325C622.518 210.422 622.595 210.499 622.712 211.294C622.808 210.519 622.885 210.441 623.68 210.325C622.905 210.228 622.828 210.151 622.712 209.356C622.615 210.131 622.518 210.208 621.743 210.325Z" fill="white" fill-opacity="0.1"/>
<path d="M680.652 104.649C681.426 104.746 681.504 104.824 681.62 105.618C681.717 104.843 681.794 104.765 682.588 104.649C681.813 104.552 681.736 104.475 681.62 103.68C681.523 104.456 681.426 104.533 680.652 104.649Z" fill="white" fill-opacity="0.1"/>
<path d="M742.162 161.524C742.936 161.621 743.014 161.699 743.13 162.493C743.227 161.718 743.304 161.64 744.099 161.524C743.324 161.427 743.247 161.35 743.13 160.555C743.034 161.33 742.936 161.407 742.162 161.524Z" fill="white" fill-opacity="0.1"/>
<path d="M712.666 173.838C712.27 173.838 711.95 174.16 711.95 174.555C711.95 174.951 712.27 175.272 712.666 175.272C713.062 175.272 713.383 174.951 713.383 174.555C713.383 174.16 713.062 173.838 712.666 173.838Z" fill="white" fill-opacity="0.1"/>
<path d="M643.514 67.3557C643.118 67.3557 642.798 67.6763 642.798 68.0725C642.798 68.4687 643.118 68.7892 643.514 68.7892C643.91 68.7892 644.23 68.4687 644.23 68.0725C644.23 67.6763 643.91 67.3557 643.514 67.3557Z" fill="white" fill-opacity="0.1"/>
<path d="M691.892 231.937C691.497 231.937 691.176 232.258 691.176 232.654C691.176 233.05 691.497 233.371 691.892 233.371C692.288 233.371 692.608 233.05 692.608 232.654C692.608 232.258 692.288 231.937 691.892 231.937Z" fill="white" fill-opacity="0.1"/>
<path d="M744.777 96.5474C744.382 96.5474 744.061 96.8686 744.061 97.2648C744.061 97.6603 744.382 97.9815 744.777 97.9815C745.174 97.9815 745.494 97.6603 745.494 97.2648C745.494 96.8686 745.174 96.5474 744.777 96.5474Z" fill="white" fill-opacity="0.1"/>
<path d="M664.146 249.011C663.75 249.011 663.429 249.332 663.429 249.729C663.429 250.124 663.75 250.445 664.146 250.445C664.541 250.445 664.862 250.124 664.862 249.729C664.862 249.332 664.541 249.011 664.146 249.011Z" fill="white" fill-opacity="0.1"/>
<path d="M606.928 226.708C606.532 226.708 606.212 227.029 606.212 227.425C606.212 227.821 606.532 228.142 606.928 228.142C607.324 228.142 607.645 227.821 607.645 227.425C607.645 227.029 607.324 226.708 606.928 226.708Z" fill="white" fill-opacity="0.1"/>
<path d="M676.476 213.874C676.081 213.874 675.76 214.195 675.76 214.591C675.76 214.987 676.081 215.308 676.476 215.308C676.872 215.308 677.192 214.987 677.192 214.591C677.192 214.195 676.872 213.874 676.476 213.874Z" fill="white" fill-opacity="0.1"/>
<path d="M648.598 223.924C648.312 224.57 648.604 225.325 649.249 225.611C649.894 225.897 650.65 225.604 650.935 224.959C651.221 224.313 650.929 223.558 650.284 223.272C649.639 222.986 648.884 223.278 648.598 223.924Z" fill="white" fill-opacity="0.15"/>
<path d="M652.154 129.871C651.448 129.871 650.876 130.443 650.876 131.149C650.876 131.855 651.448 132.428 652.154 132.428C652.86 132.428 653.432 131.855 653.432 131.149C653.432 130.443 652.86 129.871 652.154 129.871Z" fill="white" fill-opacity="0.15"/>
<path d="M673.289 172.273C672.79 172.772 672.79 173.582 673.289 174.082C673.788 174.581 674.597 174.581 675.096 174.082C675.596 173.582 675.596 172.772 675.096 172.273C674.597 171.774 673.788 171.774 673.289 172.273Z" fill="white" fill-opacity="0.15"/>
<path d="M739.084 218.38C738.688 218.38 738.368 218.701 738.368 219.096C738.368 219.493 738.688 219.813 739.084 219.813C739.48 219.813 739.801 219.493 739.801 219.096C739.801 218.701 739.48 218.38 739.084 218.38Z" fill="white" fill-opacity="0.15"/>
<path d="M719.165 139.923C718.769 139.923 718.448 140.244 718.448 140.64C718.448 141.036 718.769 141.356 719.165 141.356C719.56 141.356 719.881 141.036 719.881 140.64C719.881 140.244 719.56 139.923 719.165 139.923Z" fill="white" fill-opacity="0.15"/>
<path d="M607.616 132.5C608.391 132.598 608.468 132.675 608.585 133.469C608.681 132.695 608.759 132.617 609.553 132.5C608.778 132.404 608.701 132.327 608.585 131.532C608.488 132.307 608.391 132.384 607.616 132.5Z" fill="white" fill-opacity="0.1"/>
<path d="M699.238 76.387C700.012 76.4845 700.09 76.5614 700.206 77.3557C700.303 76.5813 700.38 76.5037 701.174 76.387C700.399 76.2902 700.322 76.2126 700.206 75.4189C700.109 76.1934 700.012 76.271 699.238 76.387Z" fill="white" fill-opacity="0.1"/>
<path d="M665.504 40.717C666.278 40.8138 666.356 40.8914 666.472 41.6857C666.569 40.9106 666.646 40.8331 667.44 40.717C666.665 40.6202 666.588 40.5426 666.472 39.7483C666.375 40.5234 666.278 40.601 665.504 40.717Z" fill="white" fill-opacity="0.1"/>
<path d="M593.578 95.718C592.804 95.8148 592.726 95.8924 592.61 96.6867C592.513 95.9122 592.436 95.8347 591.642 95.718C592.416 95.6212 592.494 95.5436 592.61 94.7493C592.707 95.5244 592.804 95.6019 593.578 95.718Z" fill="white" fill-opacity="0.1"/>
<path d="M588.232 34.018C587.458 34.1149 587.38 34.1924 587.264 34.9868C587.167 34.2117 587.09 34.1341 586.296 34.018C587.071 33.9212 587.148 33.8437 587.264 33.0493C587.361 33.8244 587.458 33.9014 588.232 34.018Z" fill="white" fill-opacity="0.1"/>
<path d="M518.084 55.6299C518.48 55.6299 518.801 55.9511 518.801 56.3473C518.801 56.7429 518.48 57.064 518.084 57.064C517.688 57.064 517.368 56.7429 517.368 56.3473C517.368 55.9511 517.688 55.6299 518.084 55.6299Z" fill="white" fill-opacity="0.1"/>
<path d="M545.83 72.7046C546.226 72.7046 546.547 73.0258 546.547 73.422C546.547 73.8176 546.226 74.1388 545.83 74.1388C545.435 74.1388 545.114 73.8176 545.114 73.422C545.114 73.0258 545.435 72.7046 545.83 72.7046Z" fill="white" fill-opacity="0.1"/>
<path d="M603.048 50.4014C603.443 50.4014 603.764 50.7219 603.764 51.1181C603.764 51.5137 603.443 51.8349 603.048 51.8349C602.651 51.8349 602.331 51.5137 602.331 51.1181C602.331 50.7219 602.651 50.4014 603.048 50.4014Z" fill="white" fill-opacity="0.1"/>
<path d="M533.499 37.5671C533.895 37.5671 534.216 37.8877 534.216 38.2839C534.216 38.6801 533.895 39.0007 533.499 39.0007C533.103 39.0007 532.783 38.6801 532.783 38.2839C532.783 37.8877 533.103 37.5671 533.499 37.5671Z" fill="white" fill-opacity="0.1"/>
<path d="M561.377 47.6174C561.662 48.263 561.371 49.0182 560.725 49.3042C560.08 49.5901 559.325 49.2984 559.04 48.6522C558.754 48.0066 559.045 47.2514 559.69 46.9654C560.336 46.6795 561.091 46.9718 561.377 47.6174Z" fill="white" fill-opacity="0.15"/>
<g clip-path="url(#clip3_45_260)">
<path d="M904.239 112.978C903.465 113.075 903.387 113.153 903.271 113.947C903.174 113.172 903.097 113.095 902.303 112.978C903.078 112.882 903.155 112.804 903.271 112.01C903.368 112.785 903.465 112.862 904.239 112.978Z" fill="white" fill-opacity="0.1"/>
<path d="M1060.53 166.574C1059.76 166.671 1059.68 166.749 1059.56 167.543C1059.47 166.768 1059.39 166.691 1058.6 166.574C1059.37 166.477 1059.45 166.4 1059.56 165.605C1059.66 166.381 1059.76 166.458 1060.53 166.574Z" fill="white" fill-opacity="0.1"/>
<path d="M953.803 158.037C953.028 158.134 952.951 158.211 952.834 159.006C952.737 158.231 952.66 158.153 951.866 158.037C952.64 157.94 952.718 157.863 952.834 157.068C952.931 157.843 953.028 157.92 953.803 158.037Z" fill="white" fill-opacity="0.1"/>
<path d="M1021.15 103.255C1020.38 103.352 1020.3 103.43 1020.19 104.224C1020.09 103.449 1020.01 103.371 1019.22 103.255C1019.99 103.159 1020.07 103.081 1020.19 102.287C1020.28 103.062 1020.38 103.139 1021.15 103.255Z" fill="white" fill-opacity="0.1"/>
<path d="M903.02 182.749C903.415 182.749 903.736 183.07 903.736 183.466C903.736 183.862 903.415 184.182 903.02 184.182C902.624 184.182 902.303 183.862 902.303 183.466C902.303 183.07 902.624 182.749 903.02 182.749Z" fill="white" fill-opacity="0.1"/>
<path d="M963.018 44.4519C963.414 44.4519 963.734 44.7725 963.734 45.1687C963.734 45.5642 963.414 45.8854 963.018 45.8854C962.622 45.8854 962.301 45.5642 962.301 45.1687C962.301 44.7725 962.622 44.4519 963.018 44.4519Z" fill="white" fill-opacity="0.1"/>
<path d="M995.404 143.218C995.8 143.218 996.121 143.539 996.121 143.935C996.121 144.331 995.8 144.652 995.404 144.652C995.009 144.652 994.688 144.331 994.688 143.935C994.688 143.539 995.009 143.218 995.404 143.218Z" fill="white" fill-opacity="0.1"/>
<path d="M1061.67 139.786C1062.07 139.786 1062.39 140.106 1062.39 140.503C1062.39 140.898 1062.07 141.219 1061.67 141.219C1061.28 141.219 1060.95 140.898 1060.95 140.503C1060.95 140.106 1061.28 139.786 1061.67 139.786Z" fill="white" fill-opacity="0.1"/>
<path d="M1023.02 129.865C1023.41 129.865 1023.73 130.186 1023.73 130.582C1023.73 130.978 1023.41 131.299 1023.02 131.299C1022.62 131.299 1022.3 130.978 1022.3 130.582C1022.3 130.186 1022.62 129.865 1023.02 129.865Z" fill="white" fill-opacity="0.1"/>
<path d="M921.367 96.2122C922.073 96.2122 922.645 96.7847 922.645 97.4912C922.645 98.197 922.073 98.7695 921.367 98.7695C920.661 98.7695 920.088 98.197 920.088 97.4912C920.088 96.7847 920.661 96.2122 921.367 96.2122Z" fill="white" fill-opacity="0.15"/>
<path d="M952.389 1.25323C952.887 1.75266 952.887 2.56174 952.389 3.06117C951.889 3.56059 951.08 3.56059 950.581 3.06117C950.082 2.56174 950.082 1.75266 950.581 1.25323C951.08 0.753806 951.889 0.753806 952.389 1.25323Z" fill="white" fill-opacity="0.15"/>
<path d="M920.805 17.417C921.201 17.417 921.521 17.7376 921.521 18.1338C921.521 18.53 921.201 18.8505 920.805 18.8505C920.409 18.8505 920.089 18.53 920.089 18.1338C920.089 17.7376 920.409 17.417 920.805 17.417Z" fill="white" fill-opacity="0.15"/>
<path d="M995.507 77.1782C995.902 77.1782 996.224 77.4994 996.224 77.895C996.224 78.2912 995.902 78.6124 995.507 78.6124C995.111 78.6124 994.791 78.2912 994.791 77.895C994.791 77.4994 995.111 77.1782 995.507 77.1782Z" fill="white" fill-opacity="0.15"/>
<path d="M947.874 117.247C947.1 117.344 947.022 117.421 946.906 118.216C946.809 117.441 946.732 117.363 945.938 117.247C946.712 117.15 946.79 117.072 946.906 116.278C947.003 117.053 947.1 117.131 947.874 117.247Z" fill="white" fill-opacity="0.1"/>
<path d="M917.044 49.6994C916.269 49.7962 916.192 49.8738 916.076 50.6682C915.979 49.893 915.901 49.8155 915.108 49.6994C915.882 49.6026 915.96 49.525 916.076 48.7307C916.173 49.5058 916.269 49.5834 917.044 49.6994Z" fill="white" fill-opacity="0.1"/>
<path d="M997.912 98.7895C997.138 98.8863 997.06 98.9639 996.944 99.7582C996.847 98.9831 996.77 98.9056 995.976 98.7895C996.75 98.6927 996.828 98.6151 996.944 97.8208C997.041 98.5959 997.138 98.6735 997.912 98.7895Z" fill="white" fill-opacity="0.1"/>
<path d="M924.159 142.187C923.384 142.284 923.307 142.362 923.19 143.156C923.094 142.381 923.016 142.304 922.222 142.187C922.997 142.091 923.074 142.013 923.19 141.219C923.287 141.994 923.384 142.071 924.159 142.187Z" fill="white" fill-opacity="0.1"/>
<path d="M774.215 201.09C774.989 201.186 775.067 201.264 775.183 202.058C775.279 201.284 775.357 201.206 776.151 201.09C775.376 200.993 775.299 200.915 775.183 200.122C775.086 200.896 774.989 200.974 774.215 201.09Z" fill="white" fill-opacity="0.1"/>
<path d="M683.074 254.715C683.848 254.812 683.926 254.889 684.042 255.684C684.139 254.908 684.216 254.831 685.011 254.715C684.236 254.618 684.159 254.54 684.042 253.746C683.945 254.521 683.848 254.599 683.074 254.715Z" fill="white" fill-opacity="0.1"/>
<path d="M688.419 193.015C689.194 193.112 689.271 193.189 689.387 193.984C689.484 193.208 689.561 193.131 690.355 193.015C689.581 192.918 689.503 192.84 689.387 192.046C689.291 192.821 689.194 192.898 688.419 193.015Z" fill="white" fill-opacity="0.1"/>
<path d="M747.328 87.3391C748.102 87.4359 748.18 87.5135 748.296 88.3078C748.392 87.5327 748.47 87.4551 749.264 87.3391C748.489 87.2423 748.412 87.1647 748.296 86.3704C748.199 87.1455 748.102 87.223 747.328 87.3391Z" fill="white" fill-opacity="0.1"/>
<path d="M808.838 144.214C809.612 144.311 809.69 144.388 809.806 145.183C809.903 144.408 809.98 144.33 810.774 144.214C810 144.117 809.922 144.04 809.806 143.245C809.71 144.02 809.612 144.097 808.838 144.214Z" fill="white" fill-opacity="0.1"/>
<path d="M779.342 156.528C778.946 156.528 778.626 156.85 778.626 157.245C778.626 157.641 778.946 157.962 779.342 157.962C779.738 157.962 780.059 157.641 780.059 157.245C780.059 156.85 779.738 156.528 779.342 156.528Z" fill="white" fill-opacity="0.1"/>
<path d="M710.189 50.0457C709.793 50.0457 709.472 50.3662 709.472 50.7624C709.472 51.1586 709.793 51.4792 710.189 51.4792C710.585 51.4792 710.905 51.1586 710.905 50.7624C710.905 50.3662 710.585 50.0457 710.189 50.0457Z" fill="white" fill-opacity="0.1"/>
<path d="M758.567 214.626C758.172 214.626 757.85 214.948 757.85 215.344C757.85 215.739 758.172 216.061 758.567 216.061C758.963 216.061 759.283 215.739 759.283 215.344C759.283 214.948 758.963 214.626 758.567 214.626Z" fill="white" fill-opacity="0.1"/>
<path d="M811.452 79.2373C811.057 79.2373 810.736 79.5585 810.736 79.9547C810.736 80.3503 811.057 80.6715 811.452 80.6715C811.848 80.6715 812.169 80.3503 812.169 79.9547C812.169 79.5585 811.848 79.2373 811.452 79.2373Z" fill="white" fill-opacity="0.1"/>
<path d="M730.821 231.701C730.426 231.701 730.105 232.023 730.105 232.419C730.105 232.814 730.426 233.136 730.821 233.136C731.217 233.136 731.538 232.814 731.538 232.419C731.538 232.023 731.217 231.701 730.821 231.701Z" fill="white" fill-opacity="0.1"/>
<path d="M673.604 209.398C673.208 209.398 672.887 209.719 672.887 210.115C672.887 210.511 673.208 210.832 673.604 210.832C674 210.832 674.32 210.511 674.32 210.115C674.32 209.719 674 209.398 673.604 209.398Z" fill="white" fill-opacity="0.1"/>
<path d="M743.152 196.564C742.756 196.564 742.435 196.885 742.435 197.281C742.435 197.677 742.756 197.998 743.152 197.998C743.548 197.998 743.868 197.677 743.868 197.281C743.868 196.885 743.548 196.564 743.152 196.564Z" fill="white" fill-opacity="0.1"/>
<path d="M715.274 206.614C714.988 207.26 715.28 208.015 715.925 208.301C716.57 208.587 717.325 208.295 717.611 207.649C717.897 207.003 717.605 206.248 716.96 205.962C716.314 205.676 715.56 205.969 715.274 206.614Z" fill="white" fill-opacity="0.15"/>
<path d="M718.83 112.561C718.124 112.561 717.551 113.133 717.551 113.839C717.551 114.545 718.124 115.118 718.83 115.118C719.536 115.118 720.107 114.545 720.107 113.839C720.107 113.133 719.536 112.561 718.83 112.561Z" fill="white" fill-opacity="0.15"/>
<path d="M739.965 154.963C739.466 155.462 739.466 156.272 739.965 156.772C740.464 157.271 741.273 157.271 741.772 156.772C742.271 156.272 742.271 155.462 741.772 154.963C741.273 154.464 740.464 154.464 739.965 154.963Z" fill="white" fill-opacity="0.15"/>
<path d="M805.76 201.07C805.364 201.07 805.044 201.391 805.044 201.786C805.044 202.183 805.364 202.503 805.76 202.503C806.155 202.503 806.477 202.183 806.477 201.786C806.477 201.391 806.155 201.07 805.76 201.07Z" fill="white" fill-opacity="0.15"/>
<path d="M785.84 122.613C785.444 122.613 785.123 122.934 785.123 123.33C785.123 123.726 785.444 124.047 785.84 124.047C786.235 124.047 786.556 123.726 786.556 123.33C786.556 122.934 786.235 122.613 785.84 122.613Z" fill="white" fill-opacity="0.15"/>
<path d="M674.291 115.19C675.066 115.288 675.143 115.365 675.259 116.159C675.356 115.384 675.434 115.307 676.228 115.19C675.453 115.093 675.375 115.017 675.259 114.222C675.163 114.997 675.066 115.074 674.291 115.19Z" fill="white" fill-opacity="0.1"/>
<path d="M765.913 59.077C766.688 59.1744 766.765 59.2513 766.882 60.0457C766.978 59.2712 767.056 59.1937 767.85 59.077C767.075 58.9802 766.998 58.9026 766.882 58.1089C766.785 58.8833 766.688 58.9609 765.913 59.077Z" fill="white" fill-opacity="0.1"/>
<path d="M732.178 23.407C732.953 23.5038 733.03 23.5813 733.147 24.3757C733.243 23.6006 733.321 23.523 734.115 23.407C733.34 23.3102 733.263 23.2326 733.147 22.4382C733.05 23.2133 732.953 23.2909 732.178 23.407Z" fill="white" fill-opacity="0.1"/>
<path d="M660.253 78.4079C659.478 78.5047 659.401 78.5823 659.285 79.3766C659.188 78.6022 659.11 78.5246 658.317 78.4079C659.091 78.3111 659.169 78.2335 659.285 77.4392C659.382 78.2143 659.478 78.2919 660.253 78.4079Z" fill="white" fill-opacity="0.1"/>
<path d="M654.908 16.708C654.134 16.8048 654.056 16.8824 653.94 17.6767C653.843 16.9016 653.766 16.824 652.971 16.708C653.747 16.6112 653.823 16.5336 653.94 15.7393C654.036 16.5144 654.134 16.5913 654.908 16.708Z" fill="white" fill-opacity="0.1"/>
<path d="M584.759 38.3198C585.154 38.3198 585.476 38.641 585.476 39.0372C585.476 39.4328 585.154 39.754 584.759 39.754C584.363 39.754 584.043 39.4328 584.043 39.0372C584.043 38.641 584.363 38.3198 584.759 38.3198Z" fill="white" fill-opacity="0.1"/>
<path d="M612.506 55.3945C612.901 55.3945 613.223 55.7157 613.223 56.1119C613.223 56.5075 612.901 56.8287 612.506 56.8287C612.11 56.8287 611.79 56.5075 611.79 56.1119C611.79 55.7157 612.11 55.3945 612.506 55.3945Z" fill="white" fill-opacity="0.1"/>
<path d="M669.723 33.0916C670.119 33.0916 670.439 33.4121 670.439 33.8083C670.439 34.2039 670.119 34.5251 669.723 34.5251C669.327 34.5251 669.007 34.2039 669.007 33.8083C669.007 33.4121 669.327 33.0916 669.723 33.0916Z" fill="white" fill-opacity="0.1"/>
<path d="M600.174 20.2571C600.57 20.2571 600.891 20.5776 600.891 20.9738C600.891 21.3701 600.57 21.6906 600.174 21.6906C599.778 21.6906 599.458 21.3701 599.458 20.9738C599.458 20.5776 599.778 20.2571 600.174 20.2571Z" fill="white" fill-opacity="0.1"/>
<path d="M628.052 30.3074C628.338 30.953 628.047 31.7082 627.401 31.9941C626.756 32.2801 626.001 31.9884 625.715 31.3421C625.429 30.6965 625.721 29.9413 626.366 29.6554C627.012 29.3694 627.766 29.6618 628.052 30.3074Z" fill="white" fill-opacity="0.15"/>
</g>
</g>
<defs>
<clipPath id="clip0_45_260">
<rect width="271.19" height="577" fill="white" transform="translate(577) rotate(90)"/>
</clipPath>
<clipPath id="clip1_45_260">
<rect width="273.113" height="577" fill="white" transform="translate(643.676 -19.2334) rotate(90)"/>
</clipPath>
<clipPath id="clip2_45_260">
<rect width="271.19" height="577" fill="white" transform="translate(1084) rotate(90)"/>
</clipPath>
<clipPath id="clip3_45_260">
<rect width="273.113" height="577" fill="white" transform="translate(1150.68 -19.2334) rotate(90)"/>
</clipPath>
</defs>
</svg>
